<mxfile host="app.diagrams.net" modified="2020-11-23T03:52:03.804Z" agent="5.0 (Macintosh; Intel Mac OS X 10_15_7) AppleWebKit/537.36 (KHTML, like Gecko) Chrome/87.0.4280.67 Safari/537.36" etag="ZR74m_apWMp9Si-eC2gX" version="13.10.1" type="github">
  <diagram id="C5RBs43oDa-KdzZeNtuy" name="Page-1">
    <mxGraphModel dx="788" dy="493" grid="1" gridSize="10" guides="1" tooltips="1" connect="1" arrows="1" fold="1" page="1" pageScale="1" pageWidth="827" pageHeight="1169" math="0" shadow="0">
      <root>
        <mxCell id="WIyWlLk6GJQsqaUBKTNV-0" />
        <mxCell id="WIyWlLk6GJQsqaUBKTNV-1" parent="WIyWlLk6GJQsqaUBKTNV-0" />
        <mxCell id="WIyWlLk6GJQsqaUBKTNV-3" value="踢人话术消息队列" style="rounded=1;whiteSpace=wrap;html=1;fontSize=12;glass=0;strokeWidth=1;shadow=0;" parent="WIyWlLk6GJQsqaUBKTNV-1" vertex="1">
          <mxGeometry x="230" y="20" width="120" height="40" as="geometry" />
        </mxCell>
        <mxCell id="QE3U2s0CcuYT5ZMcNHFd-12" style="edgeStyle=orthogonalEdgeStyle;rounded=0;orthogonalLoop=1;jettySize=auto;html=1;exitX=0.5;exitY=1;exitDx=0;exitDy=0;endArrow=blockThin;endFill=1;" edge="1" parent="WIyWlLk6GJQsqaUBKTNV-1">
          <mxGeometry relative="1" as="geometry">
            <mxPoint x="290" y="130" as="sourcePoint" />
            <mxPoint x="142" y="190" as="targetPoint" />
            <Array as="points">
              <mxPoint x="290" y="160" />
              <mxPoint x="142" y="160" />
            </Array>
          </mxGeometry>
        </mxCell>
        <mxCell id="QE3U2s0CcuYT5ZMcNHFd-13" style="edgeStyle=orthogonalEdgeStyle;rounded=0;orthogonalLoop=1;jettySize=auto;html=1;exitX=0.5;exitY=1;exitDx=0;exitDy=0;" edge="1" parent="WIyWlLk6GJQsqaUBKTNV-1">
          <mxGeometry relative="1" as="geometry">
            <mxPoint x="290" y="120" as="sourcePoint" />
            <mxPoint x="450" y="190" as="targetPoint" />
            <Array as="points">
              <mxPoint x="290" y="160" />
              <mxPoint x="450" y="160" />
            </Array>
          </mxGeometry>
        </mxCell>
        <mxCell id="QE3U2s0CcuYT5ZMcNHFd-0" value="踢人话术按群ID分组" style="rounded=1;whiteSpace=wrap;html=1;fontSize=12;glass=0;strokeWidth=1;shadow=0;" vertex="1" parent="WIyWlLk6GJQsqaUBKTNV-1">
          <mxGeometry x="230" y="90" width="120" height="40" as="geometry" />
        </mxCell>
        <mxCell id="QE3U2s0CcuYT5ZMcNHFd-1" value="" style="rounded=0;html=1;jettySize=auto;orthogonalLoop=1;fontSize=11;endArrow=block;endFill=0;endSize=8;strokeWidth=1;shadow=0;labelBackgroundColor=none;edgeStyle=orthogonalEdgeStyle;" edge="1" parent="WIyWlLk6GJQsqaUBKTNV-1" source="WIyWlLk6GJQsqaUBKTNV-3" target="QE3U2s0CcuYT5ZMcNHFd-0">
          <mxGeometry relative="1" as="geometry">
            <mxPoint x="290" y="60" as="sourcePoint" />
            <mxPoint x="290" y="110" as="targetPoint" />
          </mxGeometry>
        </mxCell>
        <mxCell id="QE3U2s0CcuYT5ZMcNHFd-6" value="d" style="rounded=1;whiteSpace=wrap;html=1;absoluteArcSize=1;arcSize=14;strokeWidth=2;" vertex="1" parent="WIyWlLk6GJQsqaUBKTNV-1">
          <mxGeometry x="20" y="190" width="200" height="920" as="geometry" />
        </mxCell>
        <mxCell id="QE3U2s0CcuYT5ZMcNHFd-10" value="........" style="rounded=1;whiteSpace=wrap;html=1;absoluteArcSize=1;arcSize=14;strokeWidth=2;" vertex="1" parent="WIyWlLk6GJQsqaUBKTNV-1">
          <mxGeometry x="370" y="190" width="160" height="330" as="geometry" />
        </mxCell>
        <mxCell id="QE3U2s0CcuYT5ZMcNHFd-14" value="群A踢人话术" style="text;html=1;align=center;verticalAlign=middle;resizable=0;points=[];autosize=1;" vertex="1" parent="WIyWlLk6GJQsqaUBKTNV-1">
          <mxGeometry x="180" y="140" width="80" height="20" as="geometry" />
        </mxCell>
        <mxCell id="QE3U2s0CcuYT5ZMcNHFd-15" value="群B，C，D，...踢人话术" style="text;html=1;align=center;verticalAlign=middle;resizable=0;points=[];autosize=1;" vertex="1" parent="WIyWlLk6GJQsqaUBKTNV-1">
          <mxGeometry x="300" y="140" width="150" height="20" as="geometry" />
        </mxCell>
        <mxCell id="QE3U2s0CcuYT5ZMcNHFd-47" value="" style="edgeStyle=orthogonalEdgeStyle;rounded=0;orthogonalLoop=1;jettySize=auto;html=1;endArrow=blockThin;endFill=1;" edge="1" parent="WIyWlLk6GJQsqaUBKTNV-1" source="QE3U2s0CcuYT5ZMcNHFd-18" target="QE3U2s0CcuYT5ZMcNHFd-19">
          <mxGeometry relative="1" as="geometry" />
        </mxCell>
        <mxCell id="QE3U2s0CcuYT5ZMcNHFd-64" style="edgeStyle=orthogonalEdgeStyle;rounded=0;orthogonalLoop=1;jettySize=auto;html=1;entryX=0;entryY=0.5;entryDx=0;entryDy=0;endArrow=blockThin;endFill=1;exitX=0;exitY=0.5;exitDx=0;exitDy=0;" edge="1" parent="WIyWlLk6GJQsqaUBKTNV-1" source="QE3U2s0CcuYT5ZMcNHFd-18" target="QE3U2s0CcuYT5ZMcNHFd-48">
          <mxGeometry relative="1" as="geometry">
            <Array as="points">
              <mxPoint x="40" y="240" />
              <mxPoint x="40" y="1070" />
            </Array>
          </mxGeometry>
        </mxCell>
        <mxCell id="QE3U2s0CcuYT5ZMcNHFd-18" value="查库检查机器人是否在库里" style="rhombus;whiteSpace=wrap;html=1;" vertex="1" parent="WIyWlLk6GJQsqaUBKTNV-1">
          <mxGeometry x="100" y="200" width="80" height="80" as="geometry" />
        </mxCell>
        <mxCell id="QE3U2s0CcuYT5ZMcNHFd-46" value="" style="edgeStyle=orthogonalEdgeStyle;rounded=0;orthogonalLoop=1;jettySize=auto;html=1;endArrow=blockThin;endFill=1;" edge="1" parent="WIyWlLk6GJQsqaUBKTNV-1" source="QE3U2s0CcuYT5ZMcNHFd-19" target="QE3U2s0CcuYT5ZMcNHFd-23">
          <mxGeometry relative="1" as="geometry" />
        </mxCell>
        <mxCell id="QE3U2s0CcuYT5ZMcNHFd-68" style="edgeStyle=orthogonalEdgeStyle;rounded=0;orthogonalLoop=1;jettySize=auto;html=1;endArrow=blockThin;endFill=1;" edge="1" parent="WIyWlLk6GJQsqaUBKTNV-1" source="QE3U2s0CcuYT5ZMcNHFd-19">
          <mxGeometry relative="1" as="geometry">
            <mxPoint x="40" y="349" as="targetPoint" />
          </mxGeometry>
        </mxCell>
        <mxCell id="QE3U2s0CcuYT5ZMcNHFd-19" value="判断机器人是否刚上线" style="rhombus;whiteSpace=wrap;html=1;" vertex="1" parent="WIyWlLk6GJQsqaUBKTNV-1">
          <mxGeometry x="100" y="309" width="80" height="80" as="geometry" />
        </mxCell>
        <mxCell id="QE3U2s0CcuYT5ZMcNHFd-45" value="" style="edgeStyle=orthogonalEdgeStyle;rounded=0;orthogonalLoop=1;jettySize=auto;html=1;endArrow=blockThin;endFill=1;" edge="1" parent="WIyWlLk6GJQsqaUBKTNV-1" source="QE3U2s0CcuYT5ZMcNHFd-23" target="QE3U2s0CcuYT5ZMcNHFd-31">
          <mxGeometry relative="1" as="geometry" />
        </mxCell>
        <mxCell id="QE3U2s0CcuYT5ZMcNHFd-69" style="edgeStyle=orthogonalEdgeStyle;rounded=0;orthogonalLoop=1;jettySize=auto;html=1;endArrow=blockThin;endFill=1;" edge="1" parent="WIyWlLk6GJQsqaUBKTNV-1" source="QE3U2s0CcuYT5ZMcNHFd-23">
          <mxGeometry relative="1" as="geometry">
            <mxPoint x="40" y="458" as="targetPoint" />
          </mxGeometry>
        </mxCell>
        <mxCell id="QE3U2s0CcuYT5ZMcNHFd-23" value="可用机器人数据 == 0" style="rhombus;whiteSpace=wrap;html=1;" vertex="1" parent="WIyWlLk6GJQsqaUBKTNV-1">
          <mxGeometry x="100" y="418" width="80" height="80" as="geometry" />
        </mxCell>
        <mxCell id="QE3U2s0CcuYT5ZMcNHFd-44" value="" style="edgeStyle=orthogonalEdgeStyle;rounded=0;orthogonalLoop=1;jettySize=auto;html=1;endArrow=blockThin;endFill=1;" edge="1" parent="WIyWlLk6GJQsqaUBKTNV-1" source="QE3U2s0CcuYT5ZMcNHFd-31" target="QE3U2s0CcuYT5ZMcNHFd-32">
          <mxGeometry relative="1" as="geometry" />
        </mxCell>
        <mxCell id="QE3U2s0CcuYT5ZMcNHFd-31" value="将at黑名单人员整合在一起" style="rounded=1;whiteSpace=wrap;html=1;fontSize=12;glass=0;strokeWidth=1;shadow=0;" vertex="1" parent="WIyWlLk6GJQsqaUBKTNV-1">
          <mxGeometry x="80" y="526" width="120" height="40" as="geometry" />
        </mxCell>
        <mxCell id="QE3U2s0CcuYT5ZMcNHFd-43" value="" style="edgeStyle=orthogonalEdgeStyle;rounded=0;orthogonalLoop=1;jettySize=auto;html=1;endArrow=blockThin;endFill=1;" edge="1" parent="WIyWlLk6GJQsqaUBKTNV-1" source="QE3U2s0CcuYT5ZMcNHFd-32" target="QE3U2s0CcuYT5ZMcNHFd-33">
          <mxGeometry relative="1" as="geometry" />
        </mxCell>
        <mxCell id="QE3U2s0CcuYT5ZMcNHFd-71" style="edgeStyle=orthogonalEdgeStyle;rounded=0;orthogonalLoop=1;jettySize=auto;html=1;endArrow=blockThin;endFill=1;" edge="1" parent="WIyWlLk6GJQsqaUBKTNV-1" source="QE3U2s0CcuYT5ZMcNHFd-32">
          <mxGeometry relative="1" as="geometry">
            <mxPoint x="40" y="637" as="targetPoint" />
          </mxGeometry>
        </mxCell>
        <mxCell id="QE3U2s0CcuYT5ZMcNHFd-32" value="判断本次踢人话术时间是否早于上次发送时间" style="rhombus;whiteSpace=wrap;html=1;" vertex="1" parent="WIyWlLk6GJQsqaUBKTNV-1">
          <mxGeometry x="100" y="597" width="80" height="80" as="geometry" />
        </mxCell>
        <mxCell id="QE3U2s0CcuYT5ZMcNHFd-42" value="" style="edgeStyle=orthogonalEdgeStyle;rounded=0;orthogonalLoop=1;jettySize=auto;html=1;endArrow=blockThin;endFill=1;" edge="1" parent="WIyWlLk6GJQsqaUBKTNV-1" source="QE3U2s0CcuYT5ZMcNHFd-33" target="QE3U2s0CcuYT5ZMcNHFd-34">
          <mxGeometry relative="1" as="geometry" />
        </mxCell>
        <mxCell id="QE3U2s0CcuYT5ZMcNHFd-73" style="edgeStyle=orthogonalEdgeStyle;rounded=0;orthogonalLoop=1;jettySize=auto;html=1;endArrow=blockThin;endFill=1;" edge="1" parent="WIyWlLk6GJQsqaUBKTNV-1" source="QE3U2s0CcuYT5ZMcNHFd-33">
          <mxGeometry relative="1" as="geometry">
            <mxPoint x="40" y="744" as="targetPoint" />
          </mxGeometry>
        </mxCell>
        <mxCell id="QE3U2s0CcuYT5ZMcNHFd-33" value="作弊时间距现在超过1分钟" style="rhombus;whiteSpace=wrap;html=1;" vertex="1" parent="WIyWlLk6GJQsqaUBKTNV-1">
          <mxGeometry x="100" y="704" width="80" height="80" as="geometry" />
        </mxCell>
        <mxCell id="QE3U2s0CcuYT5ZMcNHFd-41" value="" style="edgeStyle=orthogonalEdgeStyle;rounded=0;orthogonalLoop=1;jettySize=auto;html=1;endArrow=blockThin;endFill=1;" edge="1" parent="WIyWlLk6GJQsqaUBKTNV-1" source="QE3U2s0CcuYT5ZMcNHFd-34" target="QE3U2s0CcuYT5ZMcNHFd-35">
          <mxGeometry relative="1" as="geometry" />
        </mxCell>
        <mxCell id="QE3U2s0CcuYT5ZMcNHFd-75" style="edgeStyle=orthogonalEdgeStyle;rounded=0;orthogonalLoop=1;jettySize=auto;html=1;endArrow=blockThin;endFill=1;" edge="1" parent="WIyWlLk6GJQsqaUBKTNV-1" source="QE3U2s0CcuYT5ZMcNHFd-34">
          <mxGeometry relative="1" as="geometry">
            <mxPoint x="40" y="850" as="targetPoint" />
          </mxGeometry>
        </mxCell>
        <mxCell id="QE3U2s0CcuYT5ZMcNHFd-34" value="是否命中“同一群+管理员，60s只发一次”规则" style="rhombus;whiteSpace=wrap;html=1;" vertex="1" parent="WIyWlLk6GJQsqaUBKTNV-1">
          <mxGeometry x="100" y="810" width="80" height="80" as="geometry" />
        </mxCell>
        <mxCell id="QE3U2s0CcuYT5ZMcNHFd-37" value="" style="edgeStyle=orthogonalEdgeStyle;rounded=0;orthogonalLoop=1;jettySize=auto;html=1;endArrow=blockThin;endFill=1;" edge="1" parent="WIyWlLk6GJQsqaUBKTNV-1" source="QE3U2s0CcuYT5ZMcNHFd-35" target="QE3U2s0CcuYT5ZMcNHFd-36">
          <mxGeometry relative="1" as="geometry" />
        </mxCell>
        <mxCell id="QE3U2s0CcuYT5ZMcNHFd-35" value="发送踢人话术" style="rounded=1;whiteSpace=wrap;html=1;fontSize=12;glass=0;strokeWidth=1;shadow=0;" vertex="1" parent="WIyWlLk6GJQsqaUBKTNV-1">
          <mxGeometry x="80" y="916" width="120" height="40" as="geometry" />
        </mxCell>
        <mxCell id="QE3U2s0CcuYT5ZMcNHFd-49" value="" style="edgeStyle=orthogonalEdgeStyle;rounded=0;orthogonalLoop=1;jettySize=auto;html=1;endArrow=blockThin;endFill=1;" edge="1" parent="WIyWlLk6GJQsqaUBKTNV-1" source="QE3U2s0CcuYT5ZMcNHFd-36" target="QE3U2s0CcuYT5ZMcNHFd-48">
          <mxGeometry relative="1" as="geometry" />
        </mxCell>
        <mxCell id="QE3U2s0CcuYT5ZMcNHFd-36" value="记录本次发踢人话术时间" style="rounded=1;whiteSpace=wrap;html=1;fontSize=12;glass=0;strokeWidth=1;shadow=0;" vertex="1" parent="WIyWlLk6GJQsqaUBKTNV-1">
          <mxGeometry x="80" y="982" width="120" height="40" as="geometry" />
        </mxCell>
        <mxCell id="QE3U2s0CcuYT5ZMcNHFd-48" value="结束" style="shape=parallelogram;perimeter=parallelogramPerimeter;whiteSpace=wrap;html=1;fixedSize=1;" vertex="1" parent="WIyWlLk6GJQsqaUBKTNV-1">
          <mxGeometry x="80" y="1050" width="120" height="40" as="geometry" />
        </mxCell>
        <mxCell id="QE3U2s0CcuYT5ZMcNHFd-50" value="Y" style="text;html=1;strokeColor=none;fillColor=none;align=center;verticalAlign=middle;whiteSpace=wrap;rounded=0;" vertex="1" parent="WIyWlLk6GJQsqaUBKTNV-1">
          <mxGeometry x="110" y="280" width="40" height="20" as="geometry" />
        </mxCell>
        <mxCell id="QE3U2s0CcuYT5ZMcNHFd-51" value="N" style="text;html=1;strokeColor=none;fillColor=none;align=center;verticalAlign=middle;whiteSpace=wrap;rounded=0;" vertex="1" parent="WIyWlLk6GJQsqaUBKTNV-1">
          <mxGeometry x="110" y="389" width="40" height="20" as="geometry" />
        </mxCell>
        <mxCell id="QE3U2s0CcuYT5ZMcNHFd-52" value="N" style="text;html=1;strokeColor=none;fillColor=none;align=center;verticalAlign=middle;whiteSpace=wrap;rounded=0;" vertex="1" parent="WIyWlLk6GJQsqaUBKTNV-1">
          <mxGeometry x="110" y="498" width="40" height="20" as="geometry" />
        </mxCell>
        <mxCell id="QE3U2s0CcuYT5ZMcNHFd-53" value="N" style="text;html=1;strokeColor=none;fillColor=none;align=center;verticalAlign=middle;whiteSpace=wrap;rounded=0;" vertex="1" parent="WIyWlLk6GJQsqaUBKTNV-1">
          <mxGeometry x="110" y="677" width="40" height="20" as="geometry" />
        </mxCell>
        <mxCell id="QE3U2s0CcuYT5ZMcNHFd-55" value="N" style="text;html=1;strokeColor=none;fillColor=none;align=center;verticalAlign=middle;whiteSpace=wrap;rounded=0;" vertex="1" parent="WIyWlLk6GJQsqaUBKTNV-1">
          <mxGeometry x="110" y="784" width="40" height="20" as="geometry" />
        </mxCell>
        <mxCell id="QE3U2s0CcuYT5ZMcNHFd-56" value="N" style="text;html=1;strokeColor=none;fillColor=none;align=center;verticalAlign=middle;whiteSpace=wrap;rounded=0;" vertex="1" parent="WIyWlLk6GJQsqaUBKTNV-1">
          <mxGeometry x="110" y="890" width="40" height="20" as="geometry" />
        </mxCell>
        <mxCell id="QE3U2s0CcuYT5ZMcNHFd-65" value="N" style="text;html=1;strokeColor=none;fillColor=none;align=center;verticalAlign=middle;whiteSpace=wrap;rounded=0;" vertex="1" parent="WIyWlLk6GJQsqaUBKTNV-1">
          <mxGeometry x="50" y="220" width="40" height="20" as="geometry" />
        </mxCell>
        <mxCell id="QE3U2s0CcuYT5ZMcNHFd-66" value="Y" style="text;html=1;strokeColor=none;fillColor=none;align=center;verticalAlign=middle;whiteSpace=wrap;rounded=0;" vertex="1" parent="WIyWlLk6GJQsqaUBKTNV-1">
          <mxGeometry x="54" y="330" width="40" height="20" as="geometry" />
        </mxCell>
        <mxCell id="QE3U2s0CcuYT5ZMcNHFd-70" value="Y" style="text;html=1;strokeColor=none;fillColor=none;align=center;verticalAlign=middle;whiteSpace=wrap;rounded=0;" vertex="1" parent="WIyWlLk6GJQsqaUBKTNV-1">
          <mxGeometry x="54" y="440" width="40" height="20" as="geometry" />
        </mxCell>
        <mxCell id="QE3U2s0CcuYT5ZMcNHFd-72" value="Y" style="text;html=1;strokeColor=none;fillColor=none;align=center;verticalAlign=middle;whiteSpace=wrap;rounded=0;" vertex="1" parent="WIyWlLk6GJQsqaUBKTNV-1">
          <mxGeometry x="54" y="620" width="40" height="20" as="geometry" />
        </mxCell>
        <mxCell id="QE3U2s0CcuYT5ZMcNHFd-74" value="Y" style="text;html=1;strokeColor=none;fillColor=none;align=center;verticalAlign=middle;whiteSpace=wrap;rounded=0;" vertex="1" parent="WIyWlLk6GJQsqaUBKTNV-1">
          <mxGeometry x="54" y="725" width="40" height="20" as="geometry" />
        </mxCell>
        <mxCell id="QE3U2s0CcuYT5ZMcNHFd-76" value="Y" style="text;html=1;strokeColor=none;fillColor=none;align=center;verticalAlign=middle;whiteSpace=wrap;rounded=0;" vertex="1" parent="WIyWlLk6GJQsqaUBKTNV-1">
          <mxGeometry x="54" y="830" width="40" height="20" as="geometry" />
        </mxCell>
      </root>
    </mxGraphModel>
  </diagram>
</mxfile>
